PathFileType	4	(X/Y/Z)	C:/Users/opensim2020/Desktop/walking_exp_matlab/subject06_walking21_straight_04.trc																																																																																																																																		
DataRate	CameraRate	NumFrames	NumMarkers	Units	OrigDataRate	OrigDataStartFrame	OrigNumFrames																																																																																																																														
100	100	4	44	mm	100	2296	104																																																																																																																														
Frame#	Time	LFHD			RFHD			LBHD			RBHD			C7			T10			CLAV			STRN			RBAK			LSHO			LUPA			LELB			LFRM			LWRA			LWRB			LFIN			RSHO			RUPA			RELB			RFRM			RWRA			RWRB			RFIN			LASI			RASI			LPSI			RPSI			LTHI			LKNE			LTIB			LANK			LHEE			LTOE			RTHI			RKNE			RTIB			RANK			RHEE			RTOE			*39			*40			*41			*42			*43		
		X1	Y1	Z1	X2	Y2	Z2	X3	Y3	Z3	X4	Y4	Z4	X5	Y5	Z5	X6	Y6	Z6	X7	Y7	Z7	X8	Y8	Z8	X9	Y9	Z9	X10	Y10	Z10	X11	Y11	Z11	X12	Y12	Z12	X13	Y13	Z13	X14	Y14	Z14	X15	Y15	Z15	X16	Y16	Z16	X17	Y17	Z17	X18	Y18	Z18	X19	Y19	Z19	X20	Y20	Z20	X21	Y21	Z21	X22	Y22	Z22	X23	Y23	Z23	X24	Y24	Z24	X25	Y25	Z25	X26	Y26	Z26	X27	Y27	Z27	X28	Y28	Z28	X29	Y29	Z29	X30	Y30	Z30	X31	Y31	Z31	X32	Y32	Z32	X33	Y33	Z33	X34	Y34	Z34	X35	Y35	Z35	X36	Y36	Z36	X37	Y37	Z37	X38	Y38	Z38	X39	Y39	Z39	X40	Y40	Z40	X41	Y41	Z41	X42	Y42	Z42	X43	Y43	Z43	X44	Y44	Z44
																																																																																																																																					
14	0.13	-911.21918	1646.8606	-1501.08972	-909.07471	1633.99268	-1369.84375	-1045.42334	1594.87573	-1499.81958	-1041.71033	1587.40198	-1371.45715	-1045.53418	1432.81763	-1440.00171	-1072.3501	1103.66968	-1421.65991	-933.16925	1358.10217	-1443.92468	-889.92584	1183.26648	-1446.53027	-1109.04688	1262.64917	-1348.20264	-1001.97632	1384.32031	-1602.83398	-1052.33911	1187.47803	-1664.50293	-1090.81165	1081.45459	-1667.03955	-1115.96118	934.30585	-1689.75708	-1085.84973	803.58655	-1658.15588	-1150.40918	820.08545	-1682.64124	-1140.97583	729.60852	-1687.9856	-971.5083	1395.16382	-1282.07678	-987.85553	1204.1156	-1178.55505	-961.46313	1086.51428	-1156.95361	-907.21973	981.14087	-1138.33435	-804.05255	875.59619	-1176.49792	-850.30017	856.5849	-1131.31677	-785.57281	804.32666	-1131.16296	-892.46558	957.30371	-1538.58679	-897.65051	942.09937	-1323.20984	-1052.26282	978.41675	-1514.45715	-1047.36316	968.7276	-1347.84253	-891.70636	654.36658	-1613.96765	-842.86279	500.09113	-1586.75977	-837.12579	241.08997	-1587.33435	-825.41455	69.78129	-1545.30139	-866.05304	55.61359	-1500.60205	-680.89117	43.3547	-1536.62463	-984.65533	602.24994	-1275.52246	-996.25909	475.25894	-1291.12415	-1206.13586	313.98056	-1307.62964	-1352.5061	207.68466	-1355.88074	-1383.92725	227.46504	-1404.88745	-1321.30029	53.45528	-1347.49988	-1009.63055	1685.90466	-1439.54919	NaN	NaN	NaN	NaN	NaN	NaN	NaN	NaN	NaN	NaN	NaN	NaN
15	0.14	-897.63525	1648.37463	-1503.25745	-895.86908	1636.05139	-1371.94592	-1031.64551	1595.86987	-1502.24377	-1028.34119	1588.9071	-1373.84119	-1031.83923	1433.78992	-1442.11584	-1057.56055	1105.14954	-1423.33008	-918.81543	1359.79895	-1445.43591	-874.97003	1185.08679	-1447.84595	-1095.01428	1263.90784	-1350.18787	-986.78235	1386.20361	-1604.52502	-1034.86169	1189.10718	-1667.31689	-1071.93823	1082.55957	-1670.48462	-1094.34277	934.70245	-1693.00256	-1063.71741	804.84424	-1660.09119	-1128.00879	820.84717	-1687.49707	-1117.00659	729.73102	-1690.59961	-958.46356	1397.12292	-1284.08618	-976.04138	1206.27319	-1180.94141	-950.58167	1088.32422	-1159.54419	-898.1181	981.9267	-1140.32227	-796.65027	874.27264	-1177.4519	-843.75049	856.00067	-1132.71277	-780.08716	802.29822	-1131.93823	-877.92102	959.24219	-1540.74817	-881.67761	943.46216	-1324.82446	-1037.36194	980.29425	-1515.77209	-1032.9519	969.52985	-1349.1311	-880.01129	654.85748	-1614.97278	-833.38599	500.03	-1587.33472	-831.41595	240.71138	-1586.77698	-824.48218	69.85104	-1544.73657	-865.68494	55.93196	-1500.16443	-680.34454	42.71129	-1535.77991	-963.87628	601.68933	-1276.677	-971.5437	474.5545	-1292.11475	-1180.74487	317.96378	-1308.11584	-1330.14917	216.46346	-1356.53223	-1358.67188	239.28304	-1406.00635	-1312.81152	59.10752	-1348.58777	-996.4588	1687.32825	-1442.23572	NaN	NaN	NaN	NaN	NaN	NaN	NaN	NaN	NaN	NaN	NaN	NaN
16	0.15	-884.03412	1650.10962	-1505.23206	-882.7312	1638.36365	-1373.86633	-1017.80371	1597.03601	-1504.51501	-1015.07227	1590.58289	-1376.15906	-1017.935	1435.22009	-1444.22742	-1042.92383	1106.69983	-1425.14465	-904.59808	1361.56494	-1446.76807	-860.20496	1186.90723	-1448.99219	-1081.15088	1265.38635	-1352.19714	-971.62238	1388.06262	-1606.26697	-1017.34802	1190.5564	-1670.1178	-1052.8197	1083.46167	-1673.96155	-1073.00305	935.81317	-1697.26147	-1041.06018	805.96997	-1662.04968	-1104.57507	820.89838	-1691.74207	-1092.34448	729.70691	-1693.25244	-945.40833	1398.8938	-1285.84692	-963.72369	1208.09399	-1182.7334	-939.94501	1089.78833	-1161.86389	-889.35071	982.32544	-1142.16675	-789.62561	872.45129	-1178.38	-837.83679	855.02521	-1133.93323	-775.08258	800.03241	-1132.88989	-863.56738	960.71826	-1542.6969	-869.21973	944.41437	-1326.85327	-1023.41278	982.3512	-1517.45825	-1018.93018	970.51099	-1350.67688	-869.71826	654.70276	-1615.70386	-824.80115	499.55402	-1587.85681	-827.41833	240.23338	-1585.92407	-824.03235	69.85712	-1544.24219	-865.51117	56.19553	-1499.78186	-679.98541	42.23221	-1535.71338	-943.5423	601.51678	-1278.0022	-946.68243	474.40012	-1293.44128	-1153.7002	320.22446	-1308.70374	-1306.24512	223.63098	-1357.17224	-1331.85681	248.74234	-1407.06079	-1302.354	64.46468	-1350.38647	-983.29382	1688.87646	-1444.81946	NaN	NaN	NaN	NaN	NaN	NaN	NaN	NaN	NaN	NaN	NaN	NaN
17	0.16	-870.37128	1652.08582	-1507.09229	-869.47131	1640.83008	-1375.68872	-1003.96838	1598.46948	-1506.62549	-1001.58411	1592.48071	-1378.24316	-1003.7406	1437.18982	-1446.26074	-1028.44958	1108.38623	-1427.08374	-890.34845	1363.53943	-1448.08423	-845.68707	1188.75	-1450.05042	-1067.51038	1267.18042	-1354.41382	-956.32935	1389.84363	-1608.02258	-999.67578	1191.8634	-1672.85913	-1033.55908	1084.24475	-1677.4353	-1050.41052	935.70685	-1700.38916	-1017.67499	807.06738	-1664.10608	-1080.80676	821.10657	-1696.13989	-1066.82251	729.76208	-1696.18591	-932.27734	1400.5033	-1287.27759	-951.88495	1209.5957	-1184.4989	-929.59216	1090.89392	-1163.82251	-880.91937	982.4054	-1143.93091	-783.08704	870.34015	-1179.3269	-831.97229	854.06879	-1135.16541	-770.29974	797.56799	-1134.03906	-849.13007	962.21021	-1544.39075	-858.74261	944.90692	-1328.45667	-1009.01428	984.19073	-1519.18506	-1005.38904	971.64606	-1352.297	-859.80536	654.539	-1616.25403	-817.21698	498.97879	-1588.60938	-825.49335	240.15706	-1585.78918	-823.82178	69.75928	-1543.83093	-865.50879	56.32027	-1499.58118	-680.15491	41.96852	-1535.5625	-923.50415	601.75122	-1279.48364	-921.7674	475.0097	-1294.86389	-1125.97192	320.95297	-1309.10583	-1282.06006	229.81879	-1357.75171	-1307.49475	255.96513	-1407.78271	-1282.6156	71.02667	-1352.27087	-970.02008	1690.69568	-1447.12622	NaN	NaN	NaN	NaN	NaN	NaN	NaN	NaN	NaN	NaN	NaN	NaN
